<?xml version="1.0" standalone="no"?><!DOCTYPE svg PUBLIC "-//W3C//DTD SVG 1.1//EN" "http://www.w3.org/Graphics/SVG/1.1/DTD/svg11.dtd"><svg t="1635005785597" class="icon" viewBox="0 0 1024 1024" version="1.1" xmlns="http://www.w3.org/2000/svg" p-id="6813" xmlns:xlink="http://www.w3.org/1999/xlink" width="200" height="200"><defs><style type="text/css"></style></defs><path d="M512 0C294.208 0 117.034667 177.152 117.056 394.922667c0 80.896 24.298667 158.677333 69.781333 224.149333 2.282667 3.925333 4.586667 7.722667 7.296 11.413333l288.277333 379.989333C490.24 1019.2 500.757333 1024 512.021333 1024c11.114667 0 21.696-4.842667 30.848-15.104l286.954667-378.474667c2.837333-3.754667 5.248-7.872 6.570667-10.282667 46.144-66.389333 70.570667-144.256 70.570667-225.173333C906.965333 177.152 729.792 0 512 0zM512 536.170667c-77.781333 0-141.077333-63.296-141.077333-141.098667 0-77.781333 63.296-141.056 141.077333-141.056 77.781333 0 141.077333 63.296 141.077333 141.056C653.077333 472.874667 589.781333 536.170667 512 536.170667z" p-id="6814" fill="#515151"></path></svg>